<svg width="17" height="21" viewBox="0 0 17 21" fill="none" xmlns="http://www.w3.org/2000/svg">
<g id="Layer_2_24_">
<g id="Group">
<path id="Vector" d="M14.1846 6.57189L15.1023 5.27592C15.2688 5.04055 15.2132 4.71507 14.9781 4.54849L13.5941 3.56846C13.359 3.4022 13.0331 3.45784 12.8666 3.69285L11.926 5.02111C11.2318 4.69584 10.4864 4.46281 9.70534 4.33873V3.79868C9.70534 3.45287 9.98839 3.16987 10.3342 3.16987H10.6811C11.0271 3.16987 11.3101 2.88691 11.3101 2.54141V0.628942C11.3101 0.283308 11.0271 0 10.6811 0H6.08463C5.73899 0 5.4559 0.283308 5.4559 0.628942V2.54137C5.4559 2.88687 5.73899 3.16983 6.08463 3.16983H6.43189C6.77757 3.16983 7.06066 3.45283 7.06066 3.79864V4.33869C6.22305 4.47187 5.42709 4.72976 4.69118 5.09202L3.75931 3.77656C3.59287 3.54124 3.26725 3.4859 3.03202 3.65217L1.64821 4.63224C1.41284 4.79886 1.35725 5.12435 1.52395 5.35984L2.46351 6.68683C0.942468 8.20488 0 10.3031 0 12.6172C0 17.2393 3.76068 21 8.38293 21C13.0053 21 16.7658 17.2393 16.7658 12.6172C16.7658 10.2439 15.7746 8.0984 14.1846 6.57189ZM8.38293 18.9883C4.87002 18.9883 2.01192 16.13 2.01192 12.6172C2.01192 9.10411 4.87002 6.24601 8.38293 6.24601C11.8959 6.24601 14.7541 9.10411 14.7541 12.6172C14.7541 16.13 11.8959 18.9883 8.38293 18.9883Z" fill="white"/>
<path id="Vector_2" d="M8.38289 7.36359C8.36873 7.36359 8.35496 7.36486 8.34106 7.36486V12.5751H13.635C13.6126 9.69765 11.2655 7.36359 8.38289 7.36359Z" fill="white"/>
</g>
</g>
</svg>
